<?xml version="1.0" encoding="UTF-8" standalone="no"?>
<!-- Created with Inkscape (http://www.inkscape.org/) -->

<svg
   xmlns:dc="http://purl.org/dc/elements/1.1/"
   xmlns:cc="http://creativecommons.org/ns#"
   xmlns:rdf="http://www.w3.org/1999/02/22-rdf-syntax-ns#"
   xmlns:svg="http://www.w3.org/2000/svg"
   xmlns="http://www.w3.org/2000/svg"
   xmlns:sodipodi="http://sodipodi.sourceforge.net/DTD/sodipodi-0.dtd"
   xmlns:inkscape="http://www.inkscape.org/namespaces/inkscape"
   id="svg3480"
   version="1.1"
   inkscape:version="0.91 r13725"
   width="157.66797"
   height="255.94672"
   viewBox="0 0 157.66797 255.94672"
   sodipodi:docname="streetview.svg">
  <metadata
     id="metadata3486">
    <rdf:RDF>
      <cc:Work
         rdf:about="">
        <dc:format>image/svg+xml</dc:format>
        <dc:type
           rdf:resource="http://purl.org/dc/dcmitype/StillImage" />
        <dc:title></dc:title>
      </cc:Work>
    </rdf:RDF>
  </metadata>
  <defs
     id="defs3484" />
  <sodipodi:namedview
     pagecolor="#007180"
     bordercolor="#666666"
     borderopacity="1"
     objecttolerance="10"
     gridtolerance="10"
     guidetolerance="10"
     inkscape:pageopacity="0"
     inkscape:pageshadow="2"
     inkscape:window-width="1366"
     inkscape:window-height="705"
     id="namedview3482"
     showgrid="false"
     inkscape:zoom="1.2191942"
     inkscape:cx="200.08545"
     inkscape:cy="114.12381"
     inkscape:window-x="1358"
     inkscape:window-y="-8"
     inkscape:window-maximized="1"
     inkscape:current-layer="svg3480"
     fit-margin-top="5"
     fit-margin-left="5"
     fit-margin-bottom="5"
     fit-margin-right="5" />
  <path
     style="fill:none;fill-opacity:1;stroke:#ffffff;stroke-width:7;stroke-miterlimit:4;stroke-dasharray:none;stroke-opacity:1"
     d="M 78.833984,185.54563 A 70.333344,18.659866 0 0 0 8.5,204.20578 a 70.333344,18.659866 0 0 0 46.191406,17.5 l 24.142578,24.27735 24.132806,-24.26758 a 70.333344,18.659866 0 0 0 46.20117,-17.50977 70.333344,18.659866 0 0 0 -70.333976,-18.66015 z"
     id="path4306"
     inkscape:connector-curvature="0" />
  <path
     style="fill:#ffffff"
     d="M 78.833988,5 A 26.246845,26.246845 0 0 0 52.587894,31.246093 26.246845,26.246845 0 0 0 78.833988,57.49414 26.246845,26.246845 0 0 0 105.08008,31.246093 26.246845,26.246845 0 0 0 78.833988,5 Z m 0,56.488281 -26.457031,0.787109 c -0.88858,0.01921 -1.596647,0.570839 -1.892578,1.464849 L 26.710941,135.56055 c -0.187723,0.56711 0.01657,1.42313 0.541016,1.65039 l 10.291015,4.45898 c 0.639904,0.27729 1.393592,-0.224 1.636719,-0.81445 L 54.820316,91.783199 c 0.479299,-1.44259 0.953048,-1.72314 0.972656,-0.0762 0,0 0.236349,47.787021 0.396485,49.074221 0.160136,1.28721 -0.0086,6.40571 -0.09961,7.69141 l -4.005859,56.60351 c -0.05604,0.79167 0.880289,1.38477 1.609375,1.38477 0.729088,0 12.201589,-0.0719 12.990234,0 0.788645,0.0719 1.428613,-0.87049 1.464844,-1.59766 0,0 5.766435,-59.92872 5.712891,-60.5039 -0.05354,-0.57517 0.507598,-2.11022 0.828125,-2.54883 0,0 2.368811,-4.30104 4.144531,-4.30078 1.77572,2.6e-4 4.142575,4.30078 4.142575,4.30078 0.32053,0.43861 0.88167,1.97364 0.82813,2.54883 -0.0535,0.57518 5.71484,60.5039 5.71484,60.5039 0.0362,0.72717 0.67621,1.66956 1.46485,1.59766 0.78865,-0.0719 12.261137,0 12.990227,0 0.72908,0 1.60023,-0.59117 1.60937,-1.38477 0,0 -3.81142,-54.7957 -4.00585,-56.1582 -0.19443,-1.36251 -0.15781,-6.7871 -0.084,-8.15234 l 0.38086,-49.058601 c 0.0196,-1.647 0.49337,-1.36645 0.97266,0.0762 l 15.64062,49.072271 c 0.24313,0.59046 0.99681,1.09174 1.63672,0.81445 l 10.29102,-4.45898 c 0.52445,-0.22726 0.72873,-1.08328 0.54101,-1.65039 L 107.18358,63.740239 c -0.29593,-0.89401 -1.00397,-1.445639 -1.89257,-1.464849 L 78.833988,61.488281 Z"
     id="path3490"
     inkscape:connector-curvature="0" />
  <path
     id="path4327"
     d="M 78.833988,5 C 64.338843,5.000415 52.588309,16.750948 52.587894,31.246093 52.58723,45.742001 64.33808,57.493725 78.833988,57.49414 93.329893,57.493726 105.08074,45.742002 105.08008,31.246093 105.07966,16.750947 93.329133,5.000414 78.833988,5 Z m 0,56.488281 -26.457031,0.787109 c -0.88858,0.01921 -1.596647,0.570839 -1.892578,1.464849 L 26.710941,135.56055 c -0.187723,0.56711 0.01657,1.42313 0.541016,1.65039 l 10.291015,4.45898 c 0.639904,0.27729 1.393592,-0.224 1.636719,-0.81445 L 54.820316,91.783199 c 0.479299,-1.44259 0.953048,-1.72314 0.972656,-0.0762 0,0 0.236349,47.787021 0.396485,49.074221 0.160136,1.28721 -0.0086,6.40571 -0.09961,7.69141 0,0 -3.977839,56.20768 -4.005859,56.60351 -0.02802,0.39583 0.880288,1.38477 1.609375,1.38477 0.729087,0 12.201589,-0.0719 12.990234,0 0.788645,0.0719 1.446728,-1.23408 1.464844,-1.59766 0.01812,-0.36359 5.766435,-59.92872 5.712891,-60.5039 -0.05354,-0.57517 0.507598,-2.11022 0.828125,-2.54883 0,0 2.368811,-4.30104 4.144531,-4.30078 1.77572,2.6e-4 4.142575,4.30078 4.142575,4.30078 0.32053,0.43861 0.88167,1.97364 0.82813,2.54883 -0.0535,0.57518 5.69674,60.14031 5.71484,60.5039 0.0181,0.36358 0.6762,1.66956 1.46485,1.59766 0.78865,-0.0719 12.261147,0 12.990227,0 0.72908,0 1.6048,-0.98797 1.60937,-1.38477 0.005,-0.3968 -3.81142,-54.7957 -4.00585,-56.1582 -0.19443,-1.36251 -0.15781,-6.7871 -0.084,-8.15234 l 0.38086,-49.058601 c 0.0196,-1.647 0.49337,-1.36645 0.97266,0.0762 l 15.64062,49.072271 c 0.24313,0.59046 0.99681,1.09174 1.63672,0.81445 l 10.29102,-4.45898 c 0.52445,-0.22726 0.72873,-1.08328 0.54101,-1.65039 L 107.18358,63.740239 c -0.29593,-0.89401 -1.00397,-1.445639 -1.89257,-1.464849 z"
     style="fill:#ffffff"
     inkscape:connector-curvature="0"
     sodipodi:nodetypes="cccccccsscccccsczzzzscscczzzzsccccccsscc" />
  <path
     sodipodi:nodetypes="cccccccssccccczzzzzzczczzzzzzcccccsscc"
     inkscape:connector-curvature="0"
     style="fill:#ffffff"
     d="M 78.833988,5 C 64.338843,5.000415 52.588309,16.750948 52.587894,31.246093 52.58723,45.742001 64.33808,57.493725 78.833988,57.49414 93.329893,57.493726 105.08074,45.742002 105.08008,31.246093 105.07966,16.750947 93.329133,5.000414 78.833988,5 Z m 0,56.488281 -26.457031,0.787109 c -0.88858,0.01921 -1.596647,0.570839 -1.892578,1.464849 L 26.710941,135.56055 c -0.187723,0.56711 0.01657,1.42313 0.541016,1.65039 l 10.291015,4.45898 c 0.639904,0.27729 1.393592,-0.224 1.636719,-0.81445 L 54.820316,91.783199 c 0.479299,-1.44259 0.953048,-1.72314 0.972656,-0.0762 0,0 0.236349,47.787011 0.396485,49.074221 0.160136,1.28721 -0.0541,7.04856 -0.09961,7.69141 -0.04551,0.64285 -4.005859,56.60351 -4.005859,56.60351 -0.02802,0.39583 0.880288,1.38477 1.609375,1.38477 0.729087,0 12.201589,-0.0719 12.990234,0 0.788645,0.0719 1.446728,-1.23408 1.464844,-1.59766 0.01812,-0.36359 5.766435,-59.92872 5.712891,-60.5039 0.500608,-2.46997 2.538124,-5.92687 4.972656,-5.92687 2.434535,0 4.402885,3.21796 4.970705,5.92687 -0.0535,0.57518 5.69674,60.14031 5.71484,60.5039 0.0181,0.36358 0.6762,1.66956 1.46485,1.59766 0.78865,-0.0719 12.261147,0 12.990227,0 0.72908,0 1.6048,-0.98797 1.60937,-1.38477 0.005,-0.3968 -3.81142,-54.79569 -4.00585,-56.1582 -0.19443,-1.36251 -0.12091,-7.46972 -0.084,-8.15234 0.0369,-0.68262 0.38086,-49.058601 0.38086,-49.058601 0.0196,-1.647 0.49337,-1.36645 0.97266,0.0762 l 15.64062,49.072271 c 0.24313,0.59046 0.99681,1.09174 1.63672,0.81445 l 10.29102,-4.45898 c 0.52445,-0.22726 0.72873,-1.08328 0.54101,-1.65039 L 107.18358,63.740239 c -0.29593,-0.89401 -1.00397,-1.445639 -1.89257,-1.464849 z"
     id="path4331" />
</svg>
