<?xml version="1.0" encoding="UTF-8" standalone="no"?>
<!-- Created with Inkscape (http://www.inkscape.org/) -->

<svg
   xmlns:dc="http://purl.org/dc/elements/1.1/"
   xmlns:cc="http://creativecommons.org/ns#"
   xmlns:rdf="http://www.w3.org/1999/02/22-rdf-syntax-ns#"
   xmlns:svg="http://www.w3.org/2000/svg"
   xmlns="http://www.w3.org/2000/svg"
   xmlns:sodipodi="http://sodipodi.sourceforge.net/DTD/sodipodi-0.dtd"
   xmlns:inkscape="http://www.inkscape.org/namespaces/inkscape"
   id="svg3336"
   version="1.1"
   inkscape:version="0.91 r13725"
   xml:space="preserve"
   width="247.21617"
   height="250.94701"
   viewBox="0 0 247.21617 250.947"
   sodipodi:docname="google-maps.svg"><metadata
     id="metadata3342"><rdf:RDF><cc:Work
         rdf:about=""><dc:format>image/svg+xml</dc:format><dc:type
           rdf:resource="http://purl.org/dc/dcmitype/StillImage" /><dc:title /></cc:Work></rdf:RDF></metadata><defs
     id="defs3340"><clipPath
       clipPathUnits="userSpaceOnUse"
       id="clipPath3350"><path
         d="m 0,841.89 595.28,0 L 595.28,0 0,0 0,841.89 Z"
         id="path3352"
         inkscape:connector-curvature="0" /></clipPath><clipPath
       clipPathUnits="userSpaceOnUse"
       id="clipPath3394"><path
         d="m 0,841.89 595.28,0 L 595.28,0 0,0 0,841.89 Z"
         id="path3396"
         inkscape:connector-curvature="0" /></clipPath></defs><sodipodi:namedview
     pagecolor="#00122f"
     bordercolor="#666666"
     borderopacity="1"
     objecttolerance="10"
     gridtolerance="10"
     guidetolerance="10"
     inkscape:pageopacity="0"
     inkscape:pageshadow="2"
     inkscape:window-width="1366"
     inkscape:window-height="705"
     id="namedview3338"
     showgrid="false"
     fit-margin-top="20"
     fit-margin-left="20"
     fit-margin-bottom="20"
     fit-margin-right="20"
     inkscape:zoom="0.72030161"
     inkscape:cx="141.63084"
     inkscape:cy="5.7962594"
     inkscape:window-x="1358"
     inkscape:window-y="-8"
     inkscape:window-maximized="1"
     inkscape:current-layer="g3344" /><g
     id="g3344"
     inkscape:groupmode="layer"
     inkscape:label="New-Google-Maps-logo"
     transform="matrix(1.25,0,0,-1.25,-245.97266,649.21175)"><path
       style="fill:#ffffff;fill-opacity:1;fill-rule:evenodd;stroke:none"
       d="m 265.97266,444.89876 0,169.79851 112.15625,-112.16016 c -3.37583,-5.7276 -6.33397,-11.66778 -8.50977,-18.00195 -4.68935,-14.01798 -2.66536,-27.8845 3.60156,-39.63672 -35.74935,1e-4 -71.49869,3.2e-4 -107.24804,3.2e-4 z"
       id="path3400"
       inkscape:connector-curvature="0"
       sodipodi:nodetypes="cccccc"
       transform="matrix(0.8,0,0,-0.8,0,841.89)" /><path
       inkscape:connector-curvature="0"
       id="path3408"
       style="fill:#ffffff;fill-opacity:1;fill-rule:evenodd;stroke:none"
       d="m 228.299,334.6118 60.159,60.156 60.155,-60.156 -120.314,0 z" /><path
       style="fill:#ffffff;fill-opacity:1;fill-rule:evenodd;stroke:none"
       d="m 393.7168,525.75586 -13.74414,13.74219 36.35742,36.35742 c -0.44226,-3.90077 -0.72638,-7.89941 -2.28906,-11.23242 -3.75731,-14.4435 -11.83551,-26.74915 -20.32422,-38.86719 z m 61.45508,2.13867 c -1.26937,1.91949 -2.5043,3.84884 -3.65821,5.80274 -9.87875,14.5796 -16.59254,30.86422 -18.28906,48.4082 -0.53794,2.36908 -2.15859,4.89447 -4.23438,6.41015 l 26.18165,26.18165 0,-86.80274 z"
       id="path3416"
       inkscape:connector-curvature="0"
       transform="matrix(0.8,0,0,-0.8,0,841.89)" /><path
       style="fill:#ffffff;fill-opacity:1;fill-rule:nonzero;stroke:none"
       d="m 426.67969,423.15625 c -16.79622,-0.24991 -33.83011,8.02385 -42.7168,22.72266 -11.81355,17.6863 -6.00376,41.11138 6.03906,57.01562 14.54333,20.06844 30.12149,40.69849 35.25977,65.5625 1.52432,-5.30852 3.66803,-13.2797 6.37109,-19.3418 9.33388,-23.66752 29.25403,-41.03519 38.51172,-64.62109 8.15369,-19.45169 -0.76662,-42.86503 -18.47265,-53.62891 -7.4613,-5.11003 -16.19418,-7.57807 -24.99219,-7.70898 z m -1.63867,25.6875 c 6.12744,-0.13281 12.28836,2.17004 16.34179,7.17187 9.89511,10.37822 3.62321,29.37051 -10.24804,32.34961 -2.05044,0.56174 -4.18077,0.83249 -6.30665,0.79102 -13.92993,0.47009 -25.09145,-15.58566 -18.71679,-28.28516 3.22738,-7.66031 11.05155,-11.85659 18.92969,-12.02734 z"
       id="path3424"
       inkscape:connector-curvature="0"
       transform="matrix(0.8,0,0,-0.8,0,841.89)" /></g></svg>